<svg xmlns="http://www.w3.org/2000/svg" viewBox="0 0 1440 320"><path fill="#00cba9" fill-opacity="1" d="M0,64L12,85.3C24,107,48,149,72,144C96,139,120,85,144,106.7C168,128,192,224,216,250.7C240,277,264,235,288,218.7C312,203,336,213,360,213.3C384,213,408,203,432,186.7C456,171,480,149,504,165.3C528,181,552,235,576,229.3C600,224,624,160,648,160C672,160,696,224,720,240C744,256,768,224,792,176C816,128,840,64,864,64C888,64,912,128,936,160C960,192,984,192,1008,186.7C1032,181,1056,171,1080,165.3C1104,160,1128,160,1152,181.3C1176,203,1200,245,1224,245.3C1248,245,1272,203,1296,170.7C1320,139,1344,117,1368,122.7C1392,128,1416,160,1428,176L1440,192L1440,0L1428,0C1416,0,1392,0,1368,0C1344,0,1320,0,1296,0C1272,0,1248,0,1224,0C1200,0,1176,0,1152,0C1128,0,1104,0,1080,0C1056,0,1032,0,1008,0C984,0,960,0,936,0C912,0,888,0,864,0C840,0,816,0,792,0C768,0,744,0,720,0C696,0,672,0,648,0C624,0,600,0,576,0C552,0,528,0,504,0C480,0,456,0,432,0C408,0,384,0,360,0C336,0,312,0,288,0C264,0,240,0,216,0C192,0,168,0,144,0C120,0,96,0,72,0C48,0,24,0,12,0L0,0Z"></path></svg>