<?xml version="1.0" encoding="utf-8"?><svg xmlns="http://www.w3.org/2000/svg" xmlns:xlink="http://www.w3.org/1999/xlink" width="574" height="1793" preserveAspectRatio="xMidYMid" viewBox="0 0 574 1793" style="z-index:1;margin-right:-1.98113px;display:block;background-repeat-y:initial;background-repeat-x:initial;animation-play-state:paused" ><g transform="translate(287,896.5) scale(-1,-1) translate(-287,-896.5)" style="transform:matrix(-1, 0, 0, -1, 574, 1793);animation-play-state:paused" ><linearGradient id="lg-0.9128258201694279" x1="0" x2="1" y1="0" y2="0" style="animation-play-state:paused" ><stop stop-color="#61ffad" offset="0" style="animation-play-state:paused" ></stop>

  
<stop stop-color="#ed89ff" offset="1" style="animation-play-state:paused" ></stop></linearGradient>
<path d="M 0 0 L 0 1438.79 Q 57.4 1179.31 114.8 1163.06 T 229.6 733.381 T 344.4 671.961 T 459.2 593.657 T 574 85.336 L 574 0 Z" fill="url(#lg-0.9128258201694279)" opacity="0.21000000000000002" style="opacity:0.21;animation-play-state:paused" ></path>
<path d="M 0 0 L 0 1080.27 Q 57.4 1100.23 114.8 1067.05 T 229.6 644.2 T 344.4 441.874 T 459.2 134.851 T 574 19.9504 L 574 0 Z" fill="url(#lg-0.9128258201694279)" opacity="0.21000000000000002" style="opacity:0.21;animation-play-state:paused" ></path>
<path d="M 0 0 L 0 977.565 Q 57.4 1190.46 114.8 1171.93 T 229.6 552.396 T 344.4 445.919 T 459.2 506.075 T 574 239.935 L 574 0 Z" fill="url(#lg-0.9128258201694279)" opacity="0.21000000000000002" style="opacity:0.21;animation-play-state:paused" ></path>
<path d="M 0 0 L 0 1108.98 Q 57.4 1066.44 114.8 1052.87 T 229.6 696.769 T 344.4 767.081 T 459.2 217.021 T 574 17.3773 L 574 0 Z" fill="url(#lg-0.9128258201694279)" opacity="0.21000000000000002" style="opacity:0.21;animation-play-state:paused" ></path>
<path d="M 0 0 L 0 1314.05 Q 57.4 1089.12 114.8 1054.54 T 229.6 686.088 T 344.4 602.336 T 459.2 488.566 T 574 -25.3368 L 574 0 Z" fill="url(#lg-0.9128258201694279)" opacity="0.21000000000000002" style="opacity:0.21;animation-play-state:paused" ></path></g></svg>