<?xml version="1.0" encoding="utf-8"?><svg xmlns="http://www.w3.org/2000/svg" xmlns:xlink="http://www.w3.org/1999/xlink" width="574" height="1793" preserveAspectRatio="xMidYMid" viewBox="0 0 574 1793" style="z-index:1;margin-right:-1.98113px;display:block;background-repeat-y:initial;background-repeat-x:initial;animation-play-state:paused" ><g transform="translate(287,896.5) scale(-1,1) translate(-287,-896.5)" style="transform:matrix(-1, 0, 0, 1, 574, 0);animation-play-state:paused" ><linearGradient id="lg-0.47511144808218675" x1="0" x2="1" y1="0" y2="0" style="animation-play-state:paused" ><stop stop-color="#61ffad" offset="0" style="animation-play-state:paused" ></stop>

  
<stop stop-color="#ed89ff" offset="1" style="animation-play-state:paused" ></stop></linearGradient>
<path d="M 0 0 L 0 1025.24 Q 57.4 1244.92 114.8 1216.87 T 229.6 961.739 T 344.4 313.958 T 459.2 236.734 T 574 162.133 L 574 0 Z" fill="url(#lg-0.47511144808218675)" opacity="0.21000000000000002" style="opacity:0.21;animation-play-state:paused" ></path>
<path d="M 0 0 L 0 1200.52 Q 57.4 1148.25 114.8 1127.72 T 229.6 486.657 T 344.4 627.434 T 459.2 86.1167 T 574 131.599 L 574 0 Z" fill="url(#lg-0.47511144808218675)" opacity="0.21000000000000002" style="opacity:0.21;animation-play-state:paused" ></path>
<path d="M 0 0 L 0 1153.49 Q 57.4 754.624 114.8 728.165 T 229.6 514.349 T 344.4 669.081 T 459.2 488.913 T 574 358.385 L 574 0 Z" fill="url(#lg-0.47511144808218675)" opacity="0.21000000000000002" style="opacity:0.21;animation-play-state:paused" ></path>
<path d="M 0 0 L 0 1335.67 Q 57.4 1011.2 114.8 992.318 T 229.6 971.169 T 344.4 327.031 T 459.2 545.965 T 574 -115.416 L 574 0 Z" fill="url(#lg-0.47511144808218675)" opacity="0.21000000000000002" style="opacity:0.21;animation-play-state:paused" ></path>
<path d="M 0 0 L 0 985.557 Q 57.4 1170.99 114.8 1144.77 T 229.6 630.668 T 344.4 309.201 T 459.2 432.012 T 574 -43.2823 L 574 0 Z" fill="url(#lg-0.47511144808218675)" opacity="0.21000000000000002" style="opacity:0.21;animation-play-state:paused" ></path></g></svg>